# MagicaVoxel @ Ephtracy

# group
o 

# material
mtllib rubbishbox.mtl
usemtl palette

# normals
vn -1 0 0
vn 1 0 0
vn 0 0 1
vn 0 0 -1
vn 0 -1 0
vn 0 1 0

# texcoords
vt 0.904297 0.5
vt 0.978516 0.5

# verts
v 0.1 5.4 -0.1
v 0.1 5.4 -2.9
v 0.1 5.8 -0.1
v 0.1 5.8 -2.9
v 0.3 2 -0.3
v 0.3 2 -2.7
v 0.3 5.4 -0.3
v 0.3 5.4 -2.7
v 0.5 5.8 -0.5
v 0.5 5.8 -2.5
v 0.5 6.2 -2.3
v 0.5 6.2 -2.5
v 0.5 6.4 -2.1
v 0.5 6.4 -2.3
v 0.5 6.6 -1.9
v 0.5 6.6 -2.1
v 0.5 6.8 -1.7
v 0.5 6.8 -1.9
v 0.5 7 -1.5
v 0.5 7 -1.7
v 0.5 7.2 -0.5
v 0.5 7.2 -1.5
v 1.2 3.1 -2.3
v 1.2 3.1 -2.4
v 1.2 3.3 -2.3
v 1.2 3.3 -2.4
v 1.3 3.3 -2.3
v 1.3 3.3 -2.4
v 1.3 3.4 -2.3
v 1.3 3.4 -2.4
v 1.8 3.3 -2.3
v 1.8 3.3 -2.4
v 1.8 3.4 -2.3
v 1.8 3.4 -2.4
v 1.9 3.4 -0.4
v 1.9 3.4 -0.7
v 1.9 3.5 -0.4
v 1.9 3.5 -0.5
v 1.9 3.5 -0.7
v 2 3.4 -2.3
v 2 3.4 -2.4
v 2 3.5 -2.3
v 2 3.5 -2.4
v 2.3 2.2 -0.7
v 2.3 2.2 -2.3
v 2.3 6 -0.5
v 2.3 6 -0.7
v 2.3 6.2 -2.1
v 2.3 6.2 -2.3
v 2.3 6.4 -1.9
v 2.3 6.4 -2.1
v 2.3 6.6 -1.7
v 2.3 6.6 -1.9
v 2.3 6.8 -1.5
v 2.3 6.8 -1.7
v 2.3 7 -0.5
v 2.3 7 -1.5
v 0.7 2.2 -0.7
v 0.7 2.2 -2.3
v 0.7 6 -0.5
v 0.7 6 -0.7
v 0.7 6.2 -2.1
v 0.7 6.2 -2.3
v 0.7 6.4 -1.9
v 0.7 6.4 -2.1
v 0.7 6.6 -1.7
v 0.7 6.6 -1.9
v 0.7 6.8 -1.5
v 0.7 6.8 -1.7
v 0.7 7 -0.5
v 0.7 7 -1.5
v 1 3.1 -2.3
v 1 3.1 -2.4
v 1 3.3 -2.3
v 1 3.3 -2.4
v 1.1 3.3 -2.3
v 1.1 3.3 -2.4
v 1.1 3.4 -2.3
v 1.1 3.4 -2.4
v 1.6 3.3 -2.3
v 1.6 3.3 -2.4
v 1.6 3.5 -2.3
v 1.6 3.5 -2.4
v 1.8 3.4 -0.4
v 1.8 3.4 -0.7
v 1.8 3.5 -0.4
v 1.8 3.5 -0.5
v 1.8 3.5 -0.7
v 2.5 5.8 -0.5
v 2.5 5.8 -2.5
v 2.5 6.2 -2.3
v 2.5 6.2 -2.5
v 2.5 6.4 -2.1
v 2.5 6.4 -2.3
v 2.5 6.6 -1.9
v 2.5 6.6 -2.1
v 2.5 6.8 -1.7
v 2.5 6.8 -1.9
v 2.5 7 -1.5
v 2.5 7 -1.7
v 2.5 7.2 -0.5
v 2.5 7.2 -1.5
v 2.7 2 -0.3
v 2.7 2 -2.7
v 2.7 5.4 -0.3
v 2.7 5.4 -2.7
v 2.9 5.4 -0.1
v 2.9 5.4 -2.9
v 2.9 5.8 -0.1
v 2.9 5.8 -2.9
v 0.1 5.4 -0.1
v 0.1 5.8 -0.1
v 2.9 5.4 -0.1
v 2.9 5.8 -0.1
v 0.3 2 -0.3
v 0.3 5.4 -0.3
v 0.5 3.4 -0.3
v 0.5 3.9 -0.3
v 0.6 3.4 -0.3
v 0.6 3.8 -0.3
v 0.7 3.5 -0.3
v 0.7 3.7 -0.3
v 0.7 4.3 -0.3
v 0.7 4.5 -0.3
v 0.8 4.3 -0.3
v 0.8 4.4 -0.3
v 0.8 4.5 -0.3
v 0.8 4.7 -0.3
v 0.9 3.3 -0.3
v 0.9 3.5 -0.3
v 0.9 3.6 -0.3
v 0.9 3.7 -0.3
v 0.9 4.4 -0.3
v 0.9 4.5 -0.3
v 0.9 4.7 -0.3
v 0.9 4.8 -0.3
v 1 3.2 -0.3
v 1 3.3 -0.3
v 1 3.8 -0.3
v 1 3.9 -0.3
v 1 4.8 -0.3
v 1 4.9 -0.3
v 1.1 3.5 -0.3
v 1.1 3.6 -0.3
v 1.1 4.9 -0.3
v 1.1 5 -0.3
v 1.2 3.1 -0.3
v 1.2 3.2 -0.3
v 1.2 4.5 -0.3
v 1.2 4.6 -0.3
v 1.3 4.6 -0.3
v 1.3 4.8 -0.3
v 1.4 3.4 -0.3
v 1.4 3.5 -0.3
v 1.4 4.7 -0.3
v 1.4 4.8 -0.3
v 1.6 3.4 -0.3
v 1.6 3.5 -0.3
v 1.6 4.5 -0.3
v 1.6 4.6 -0.3
v 1.7 3.5 -0.3
v 1.7 3.6 -0.3
v 1.7 4.9 -0.3
v 1.7 5 -0.3
v 1.8 3.1 -0.3
v 1.8 3.3 -0.3
v 1.8 4.4 -0.3
v 1.8 4.5 -0.3
v 1.8 4.6 -0.3
v 1.8 4.7 -0.3
v 1.9 3.4 -0.3
v 1.9 3.5 -0.3
v 1.9 3.6 -0.3
v 1.9 3.7 -0.3
v 1.9 4.8 -0.3
v 1.9 4.9 -0.3
v 2 3.3 -0.3
v 2 3.4 -0.3
v 2 3.5 -0.3
v 2 4.5 -0.3
v 2 4.6 -0.3
v 2 4.8 -0.3
v 2 4.9 -0.3
v 2 5.1 -0.3
v 2.1 3.4 -0.3
v 2.1 3.7 -0.3
v 2.1 3.9 -0.3
v 2.1 4.6 -0.3
v 2.1 4.9 -0.3
v 2.1 5.1 -0.3
v 2.2 3.7 -0.3
v 2.2 3.9 -0.3
v 2.2 4.4 -0.3
v 2.2 4.9 -0.3
v 2.7 2 -0.3
v 2.7 5.4 -0.3
v 0.5 5.8 -0.5
v 0.5 7.2 -0.5
v 0.7 6 -0.5
v 0.7 7 -0.5
v 2.3 6 -0.5
v 2.3 7 -0.5
v 2.5 5.8 -0.5
v 2.5 7.2 -0.5
v 0.7 6.8 -1.5
v 0.7 7 -1.5
v 2.3 6.8 -1.5
v 2.3 7 -1.5
v 0.7 6.6 -1.7
v 0.7 6.8 -1.7
v 2.3 6.6 -1.7
v 2.3 6.8 -1.7
v 0.7 6.4 -1.9
v 0.7 6.6 -1.9
v 2.3 6.4 -1.9
v 2.3 6.6 -1.9
v 0.7 6.2 -2.1
v 0.7 6.4 -2.1
v 2.3 6.2 -2.1
v 2.3 6.4 -2.1
v 0.7 2.2 -2.3
v 0.7 6.2 -2.3
v 1 3.1 -2.3
v 1 3.3 -2.3
v 1.1 3.3 -2.3
v 1.1 3.4 -2.3
v 1.2 3.1 -2.3
v 1.2 3.3 -2.3
v 1.3 3.3 -2.3
v 1.3 3.4 -2.3
v 1.6 3.3 -2.3
v 1.6 3.5 -2.3
v 1.8 3.3 -2.3
v 1.8 3.4 -2.3
v 2 3.4 -2.3
v 2 3.5 -2.3
v 2.3 2.2 -2.3
v 2.3 6.2 -2.3
v 1 3.1 -2.4
v 1 3.3 -2.4
v 1.1 3.3 -2.4
v 1.1 3.4 -2.4
v 1.2 3.1 -2.4
v 1.2 3.3 -2.4
v 1.3 3.3 -2.4
v 1.3 3.4 -2.4
v 1.6 3.3 -2.4
v 1.6 3.5 -2.4
v 1.8 3.3 -2.4
v 1.8 3.4 -2.4
v 2 3.4 -2.4
v 2 3.5 -2.4
v 1.8 3.4 -0.4
v 1.8 3.5 -0.4
v 1.9 3.4 -0.4
v 1.9 3.5 -0.4
v 0.7 2.2 -0.7
v 0.7 6 -0.7
v 0.9 3.3 -0.7
v 0.9 3.4 -0.7
v 1 3.1 -0.7
v 1 3.3 -0.7
v 1.2 3.1 -0.7
v 1.2 3.3 -0.7
v 1.3 3.3 -0.7
v 1.3 3.4 -0.7
v 1.6 3.3 -0.7
v 1.6 3.5 -0.7
v 1.8 3.3 -0.7
v 1.8 3.4 -0.7
v 1.8 3.5 -0.7
v 1.9 3.4 -0.7
v 1.9 3.5 -0.7
v 1.9 3.6 -0.7
v 2.1 3.5 -0.7
v 2.1 3.6 -0.7
v 2.3 2.2 -0.7
v 2.3 6 -0.7
v 0.5 7 -1.5
v 0.5 7.2 -1.5
v 2.5 7 -1.5
v 2.5 7.2 -1.5
v 0.5 6.8 -1.7
v 0.5 7 -1.7
v 2.5 6.8 -1.7
v 2.5 7 -1.7
v 0.5 6.6 -1.9
v 0.5 6.8 -1.9
v 2.5 6.6 -1.9
v 2.5 6.8 -1.9
v 0.5 6.4 -2.1
v 0.5 6.6 -2.1
v 2.5 6.4 -2.1
v 2.5 6.6 -2.1
v 0.5 6.2 -2.3
v 0.5 6.4 -2.3
v 2.5 6.2 -2.3
v 2.5 6.4 -2.3
v 0.5 5.8 -2.5
v 0.5 6.2 -2.5
v 2.5 5.8 -2.5
v 2.5 6.2 -2.5
v 0.3 2 -2.7
v 0.3 5.4 -2.7
v 2.7 2 -2.7
v 2.7 5.4 -2.7
v 0.1 5.4 -2.9
v 0.1 5.8 -2.9
v 2.9 5.4 -2.9
v 2.9 5.8 -2.9
v 0.3 2 -0.3
v 2.7 2 -0.3
v 0.3 2 -2.7
v 2.7 2 -2.7
v 1 3.3 -2.3
v 1.1 3.3 -2.3
v 1 3.3 -2.4
v 1.1 3.3 -2.4
v 1.1 3.4 -2.3
v 1.3 3.4 -2.3
v 1.1 3.4 -2.4
v 1.3 3.4 -2.4
v 1.8 3.5 -0.4
v 1.9 3.5 -0.4
v 1.8 3.5 -0.5
v 1.9 3.5 -0.5
v 1.8 3.5 -0.7
v 1.9 3.5 -0.7
v 1.6 3.5 -2.3
v 2 3.5 -2.3
v 1.6 3.5 -2.4
v 2 3.5 -2.4
v 0.1 5.4 -0.1
v 2.9 5.4 -0.1
v 0.3 5.4 -0.3
v 2.7 5.4 -0.3
v 0.3 5.4 -2.7
v 2.7 5.4 -2.7
v 0.1 5.4 -2.9
v 2.9 5.4 -2.9
v 0.7 6.2 -2.1
v 2.3 6.2 -2.1
v 0.7 6.2 -2.3
v 2.3 6.2 -2.3
v 0.7 6.4 -1.9
v 2.3 6.4 -1.9
v 0.7 6.4 -2.1
v 2.3 6.4 -2.1
v 0.7 6.6 -1.7
v 2.3 6.6 -1.7
v 0.7 6.6 -1.9
v 2.3 6.6 -1.9
v 0.7 6.8 -1.5
v 2.3 6.8 -1.5
v 0.7 6.8 -1.7
v 2.3 6.8 -1.7
v 0.7 7 -0.5
v 2.3 7 -0.5
v 0.7 7 -1.5
v 2.3 7 -1.5
v 0.7 2.2 -0.7
v 2.3 2.2 -0.7
v 0.7 2.2 -2.3
v 2.3 2.2 -2.3
v 1 3.1 -2.3
v 1.2 3.1 -2.3
v 1 3.1 -2.4
v 1.2 3.1 -2.4
v 1.2 3.3 -2.3
v 1.3 3.3 -2.3
v 1.6 3.3 -2.3
v 1.8 3.3 -2.3
v 1.2 3.3 -2.4
v 1.3 3.3 -2.4
v 1.6 3.3 -2.4
v 1.8 3.3 -2.4
v 1.8 3.4 -0.4
v 1.9 3.4 -0.4
v 1.8 3.4 -0.7
v 1.9 3.4 -0.7
v 1.8 3.4 -2.3
v 2 3.4 -2.3
v 1.8 3.4 -2.4
v 2 3.4 -2.4
v 0.1 5.8 -0.1
v 2.9 5.8 -0.1
v 0.5 5.8 -0.5
v 2.5 5.8 -0.5
v 0.5 5.8 -2.5
v 2.5 5.8 -2.5
v 0.1 5.8 -2.9
v 2.9 5.8 -2.9
v 0.7 6 -0.5
v 2.3 6 -0.5
v 0.7 6 -0.7
v 2.3 6 -0.7
v 0.5 6.2 -2.3
v 2.5 6.2 -2.3
v 0.5 6.2 -2.5
v 2.5 6.2 -2.5
v 0.5 6.4 -2.1
v 2.5 6.4 -2.1
v 0.5 6.4 -2.3
v 2.5 6.4 -2.3
v 0.5 6.6 -1.9
v 2.5 6.6 -1.9
v 0.5 6.6 -2.1
v 2.5 6.6 -2.1
v 0.5 6.8 -1.7
v 2.5 6.8 -1.7
v 0.5 6.8 -1.9
v 2.5 6.8 -1.9
v 0.5 7 -1.5
v 2.5 7 -1.5
v 0.5 7 -1.7
v 2.5 7 -1.7
v 0.5 7.2 -0.5
v 2.5 7.2 -0.5
v 0.5 7.2 -1.5
v 2.5 7.2 -1.5

# faces
f 3/2/1 2/2/1 1/2/1
f 4/2/1 2/2/1 3/2/1
f 7/2/1 6/2/1 5/2/1
f 8/2/1 6/2/1 7/2/1
f 11/2/1 10/2/1 9/2/1
f 12/2/1 10/2/1 11/2/1
f 13/2/1 11/2/1 9/2/1
f 14/2/1 11/2/1 13/2/1
f 15/2/1 13/2/1 9/2/1
f 16/2/1 13/2/1 15/2/1
f 17/2/1 15/2/1 9/2/1
f 18/2/1 15/2/1 17/2/1
f 19/2/1 17/2/1 9/2/1
f 20/2/1 17/2/1 19/2/1
f 21/2/1 19/2/1 9/2/1
f 22/2/1 19/2/1 21/2/1
f 25/2/1 24/2/1 23/2/1
f 26/2/1 24/2/1 25/2/1
f 29/2/1 28/2/1 27/2/1
f 30/2/1 28/2/1 29/2/1
f 33/2/1 32/2/1 31/2/1
f 34/2/1 32/2/1 33/2/1
f 37/2/1 36/2/1 35/2/1
f 38/2/1 36/2/1 37/2/1
f 39/2/1 36/2/1 38/2/1
f 42/2/1 41/2/1 40/2/1
f 43/2/1 41/2/1 42/2/1
f 47/2/1 45/2/1 44/2/1
f 48/2/1 45/2/1 47/2/1
f 48/2/1 47/2/1 46/2/1
f 49/2/1 45/2/1 48/2/1
f 50/2/1 48/2/1 46/2/1
f 51/2/1 48/2/1 50/2/1
f 52/2/1 50/2/1 46/2/1
f 53/2/1 50/2/1 52/2/1
f 54/2/1 52/2/1 46/2/1
f 55/2/1 52/2/1 54/2/1
f 56/2/1 54/2/1 46/2/1
f 57/2/1 54/2/1 56/2/1
f 58/2/2 59/2/2 61/2/2
f 61/2/2 59/2/2 62/2/2
f 60/2/2 61/2/2 62/2/2
f 62/2/2 59/2/2 63/2/2
f 60/2/2 62/2/2 64/2/2
f 64/2/2 62/2/2 65/2/2
f 60/2/2 64/2/2 66/2/2
f 66/2/2 64/2/2 67/2/2
f 60/2/2 66/2/2 68/2/2
f 68/2/2 66/2/2 69/2/2
f 60/2/2 68/2/2 70/2/2
f 70/2/2 68/2/2 71/2/2
f 72/2/2 73/2/2 74/2/2
f 74/2/2 73/2/2 75/2/2
f 76/2/2 77/2/2 78/2/2
f 78/2/2 77/2/2 79/2/2
f 80/2/2 81/2/2 82/2/2
f 82/2/2 81/2/2 83/2/2
f 84/1/2 85/1/2 86/1/2
f 86/1/2 85/1/2 87/1/2
f 87/1/2 85/1/2 88/1/2
f 89/2/2 90/2/2 91/2/2
f 91/2/2 90/2/2 92/2/2
f 89/2/2 91/2/2 93/2/2
f 93/2/2 91/2/2 94/2/2
f 89/2/2 93/2/2 95/2/2
f 95/2/2 93/2/2 96/2/2
f 89/2/2 95/2/2 97/2/2
f 97/2/2 95/2/2 98/2/2
f 89/2/2 97/2/2 99/2/2
f 99/2/2 97/2/2 100/2/2
f 89/2/2 99/2/2 101/2/2
f 101/2/2 99/2/2 102/2/2
f 103/2/2 104/2/2 105/2/2
f 105/2/2 104/2/2 106/2/2
f 107/2/2 108/2/2 109/2/2
f 109/2/2 108/2/2 110/2/2
f 113/2/3 112/2/3 111/2/3
f 114/2/3 112/2/3 113/2/3
f 117/2/3 116/2/3 115/2/3
f 118/2/3 116/2/3 117/2/3
f 119/2/3 117/2/3 115/2/3
f 119/1/3 118/1/3 117/1/3
f 120/1/3 118/1/3 119/1/3
f 121/2/3 120/2/3 119/2/3
f 122/2/3 120/2/3 121/2/3
f 123/2/3 116/2/3 118/2/3
f 124/2/3 116/2/3 123/2/3
f 125/2/3 123/2/3 118/2/3
f 125/1/3 124/1/3 123/1/3
f 126/1/3 124/1/3 125/1/3
f 127/2/3 116/2/3 124/2/3
f 127/1/3 124/1/3 126/1/3
f 128/2/3 116/2/3 127/2/3
f 129/2/3 119/2/3 115/2/3
f 129/2/3 121/2/3 119/2/3
f 130/1/3 122/1/3 121/1/3
f 130/2/3 121/2/3 129/2/3
f 131/1/3 122/1/3 130/1/3
f 132/2/3 120/2/3 122/2/3
f 132/1/3 122/1/3 131/1/3
f 133/1/3 128/1/3 127/1/3
f 133/2/3 126/2/3 125/2/3
f 133/1/3 127/1/3 126/1/3
f 134/1/3 128/1/3 133/1/3
f 135/2/3 116/2/3 128/2/3
f 135/1/3 128/1/3 134/1/3
f 136/2/3 116/2/3 135/2/3
f 137/2/3 129/2/3 115/2/3
f 138/1/3 131/1/3 130/1/3
f 138/2/3 129/2/3 137/2/3
f 138/1/3 130/1/3 129/1/3
f 139/1/3 118/1/3 120/1/3
f 139/2/3 120/2/3 132/2/3
f 139/2/3 132/2/3 131/2/3
f 140/2/3 134/2/3 133/2/3
f 140/1/3 118/1/3 139/1/3
f 140/2/3 125/2/3 118/2/3
f 140/2/3 133/2/3 125/2/3
f 141/2/3 116/2/3 136/2/3
f 141/1/3 135/1/3 134/1/3
f 141/1/3 136/1/3 135/1/3
f 142/2/3 116/2/3 141/2/3
f 143/1/3 131/1/3 138/1/3
f 143/1/3 138/1/3 137/1/3
f 144/2/3 139/2/3 131/2/3
f 144/1/3 131/1/3 143/1/3
f 144/2/3 140/2/3 139/2/3
f 145/2/3 116/2/3 142/2/3
f 145/1/3 142/1/3 141/1/3
f 146/2/3 116/2/3 145/2/3
f 147/2/3 137/2/3 115/2/3
f 148/1/3 143/1/3 137/1/3
f 148/2/3 137/2/3 147/2/3
f 149/2/3 140/2/3 144/2/3
f 149/2/3 144/2/3 143/2/3
f 149/2/3 134/2/3 140/2/3
f 149/1/3 146/1/3 145/1/3
f 149/1/3 145/1/3 141/1/3
f 149/1/3 141/1/3 134/1/3
f 150/1/3 146/1/3 149/1/3
f 151/2/3 150/2/3 149/2/3
f 151/1/3 146/1/3 150/1/3
f 152/1/3 146/1/3 151/1/3
f 153/1/3 143/1/3 148/1/3
f 153/1/3 148/1/3 147/1/3
f 154/2/3 152/2/3 151/2/3
f 154/1/3 143/1/3 153/1/3
f 154/2/3 149/2/3 143/2/3
f 154/2/3 151/2/3 149/2/3
f 155/2/3 152/2/3 154/2/3
f 156/1/3 146/1/3 152/1/3
f 156/2/3 152/2/3 155/2/3
f 157/2/3 155/2/3 154/2/3
f 157/1/3 153/1/3 147/1/3
f 157/2/3 154/2/3 153/2/3
f 158/2/3 155/2/3 157/2/3
f 159/2/3 155/2/3 158/2/3
f 160/2/3 155/2/3 159/2/3
f 161/1/3 158/1/3 157/1/3
f 161/2/3 159/2/3 158/2/3
f 162/2/3 159/2/3 161/2/3
f 163/1/3 146/1/3 156/1/3
f 163/1/3 156/1/3 155/1/3
f 164/2/3 116/2/3 146/2/3
f 164/1/3 146/1/3 163/1/3
f 165/2/3 147/2/3 115/2/3
f 165/1/3 162/1/3 161/1/3
f 165/1/3 157/1/3 147/1/3
f 165/1/3 161/1/3 157/1/3
f 166/1/3 162/1/3 165/1/3
f 167/2/3 159/2/3 162/2/3
f 168/1/3 160/1/3 159/1/3
f 168/2/3 159/2/3 167/2/3
f 169/2/3 155/2/3 160/2/3
f 169/1/3 160/1/3 168/1/3
f 170/1/3 163/1/3 155/1/3
f 170/2/3 155/2/3 169/2/3
f 171/1/3 162/1/3 166/1/3
f 172/1/3 162/1/3 171/1/3
f 173/2/3 167/2/3 162/2/3
f 173/1/3 162/1/3 172/1/3
f 174/2/3 167/2/3 173/2/3
f 175/1/3 163/1/3 170/1/3
f 175/1/3 170/1/3 169/1/3
f 176/2/3 164/2/3 163/2/3
f 176/1/3 163/1/3 175/1/3
f 177/2/3 166/2/3 165/2/3
f 177/1/3 171/1/3 166/1/3
f 178/2/3 172/2/3 171/2/3
f 178/1/3 171/1/3 177/1/3
f 179/1/3 174/1/3 173/1/3
f 179/2/3 172/2/3 178/2/3
f 179/1/3 173/1/3 172/1/3
f 180/2/3 169/2/3 168/2/3
f 180/1/3 168/1/3 167/1/3
f 181/1/3 175/1/3 169/1/3
f 181/2/3 169/2/3 180/2/3
f 182/2/3 176/2/3 175/2/3
f 182/1/3 175/1/3 181/1/3
f 183/2/3 164/2/3 176/2/3
f 183/2/3 176/2/3 182/2/3
f 184/2/3 116/2/3 164/2/3
f 184/2/3 164/2/3 183/2/3
f 185/1/3 179/1/3 178/1/3
f 185/2/3 178/2/3 177/2/3
f 186/1/3 174/1/3 179/1/3
f 186/1/3 179/1/3 185/1/3
f 186/2/3 167/2/3 174/2/3
f 187/2/3 167/2/3 186/2/3
f 188/2/3 183/2/3 182/2/3
f 188/1/3 181/1/3 180/1/3
f 188/2/3 182/2/3 181/2/3
f 189/1/3 184/1/3 183/1/3
f 189/2/3 183/2/3 188/2/3
f 190/2/3 116/2/3 184/2/3
f 190/1/3 184/1/3 189/1/3
f 191/1/3 187/1/3 186/1/3
f 191/2/3 186/2/3 185/2/3
f 192/2/3 167/2/3 187/2/3
f 192/1/3 187/1/3 191/1/3
f 193/1/3 180/1/3 167/1/3
f 193/2/3 167/2/3 192/2/3
f 193/1/3 189/1/3 188/1/3
f 193/1/3 188/1/3 180/1/3
f 194/2/3 190/2/3 189/2/3
f 194/1/3 189/1/3 193/1/3
f 195/2/3 185/2/3 177/2/3
f 195/2/3 191/2/3 185/2/3
f 195/2/3 194/2/3 193/2/3
f 195/2/3 165/2/3 115/2/3
f 195/2/3 193/2/3 192/2/3
f 195/2/3 177/2/3 165/2/3
f 195/2/3 192/2/3 191/2/3
f 196/2/3 190/2/3 194/2/3
f 196/2/3 194/2/3 195/2/3
f 196/2/3 116/2/3 190/2/3
f 199/2/3 198/2/3 197/2/3
f 200/2/3 198/2/3 199/2/3
f 201/2/3 199/2/3 197/2/3
f 202/2/3 198/2/3 200/2/3
f 203/2/3 201/2/3 197/2/3
f 203/2/3 202/2/3 201/2/3
f 204/2/3 198/2/3 202/2/3
f 204/2/3 202/2/3 203/2/3
f 207/2/3 206/2/3 205/2/3
f 208/2/3 206/2/3 207/2/3
f 211/2/3 210/2/3 209/2/3
f 212/2/3 210/2/3 211/2/3
f 215/2/3 214/2/3 213/2/3
f 216/2/3 214/2/3 215/2/3
f 219/2/3 218/2/3 217/2/3
f 220/2/3 218/2/3 219/2/3
f 223/2/3 222/2/3 221/2/3
f 224/2/3 222/2/3 223/2/3
f 225/2/3 222/2/3 224/2/3
f 226/2/3 222/2/3 225/2/3
f 227/2/3 223/2/3 221/2/3
f 229/2/3 228/2/3 227/2/3
f 230/2/3 222/2/3 226/2/3
f 231/2/3 229/2/3 227/2/3
f 231/2/3 230/2/3 229/2/3
f 232/2/3 222/2/3 230/2/3
f 232/2/3 230/2/3 231/2/3
f 233/2/3 231/2/3 227/2/3
f 235/2/3 234/2/3 233/2/3
f 236/2/3 222/2/3 232/2/3
f 237/2/3 235/2/3 233/2/3
f 237/2/3 236/2/3 235/2/3
f 237/2/3 227/2/3 221/2/3
f 237/2/3 233/2/3 227/2/3
f 238/2/3 222/2/3 236/2/3
f 238/2/3 236/2/3 237/2/3
f 241/2/3 240/2/3 239/2/3
f 243/2/3 241/2/3 239/2/3
f 243/2/3 242/2/3 241/2/3
f 244/2/3 242/2/3 243/2/3
f 245/2/3 242/2/3 244/2/3
f 246/2/3 242/2/3 245/2/3
f 249/2/3 248/2/3 247/2/3
f 250/2/3 248/2/3 249/2/3
f 251/2/3 248/2/3 250/2/3
f 252/2/3 248/2/3 251/2/3
f 253/1/4 254/1/4 255/1/4
f 255/1/4 254/1/4 256/1/4
f 257/2/4 258/2/4 259/2/4
f 259/2/4 258/2/4 260/2/4
f 257/2/4 259/2/4 261/2/4
f 259/1/4 260/1/4 262/1/4
f 261/2/4 259/2/4 262/2/4
f 257/2/4 261/2/4 263/2/4
f 261/1/4 262/1/4 263/1/4
f 262/1/4 260/1/4 264/1/4
f 263/1/4 262/1/4 264/1/4
f 263/2/4 264/2/4 265/2/4
f 264/1/4 260/1/4 265/1/4
f 260/2/4 258/2/4 266/2/4
f 265/1/4 260/1/4 266/1/4
f 263/2/4 265/2/4 267/2/4
f 265/2/4 266/2/4 267/2/4
f 266/2/4 258/2/4 268/2/4
f 267/2/4 266/2/4 268/2/4
f 263/2/4 267/2/4 269/2/4
f 267/1/4 268/1/4 269/1/4
f 269/1/4 268/1/4 270/1/4
f 268/2/4 258/2/4 271/2/4
f 270/1/4 268/1/4 271/1/4
f 269/2/4 270/2/4 272/2/4
f 271/2/4 258/2/4 273/2/4
f 273/2/4 258/2/4 274/2/4
f 272/2/4 273/2/4 275/2/4
f 273/1/4 274/1/4 275/1/4
f 274/2/4 258/2/4 276/2/4
f 275/1/4 274/1/4 276/1/4
f 269/2/4 272/2/4 277/2/4
f 257/2/4 263/2/4 277/2/4
f 275/2/4 276/2/4 277/2/4
f 272/2/4 275/2/4 277/2/4
f 263/2/4 269/2/4 277/2/4
f 276/2/4 258/2/4 278/2/4
f 277/2/4 276/2/4 278/2/4
f 279/2/4 280/2/4 281/2/4
f 281/2/4 280/2/4 282/2/4
f 283/2/4 284/2/4 285/2/4
f 285/2/4 284/2/4 286/2/4
f 287/2/4 288/2/4 289/2/4
f 289/2/4 288/2/4 290/2/4
f 291/2/4 292/2/4 293/2/4
f 293/2/4 292/2/4 294/2/4
f 295/2/4 296/2/4 297/2/4
f 297/2/4 296/2/4 298/2/4
f 299/2/4 300/2/4 301/2/4
f 301/2/4 300/2/4 302/2/4
f 303/2/4 304/2/4 305/2/4
f 305/2/4 304/2/4 306/2/4
f 307/2/4 308/2/4 309/2/4
f 309/2/4 308/2/4 310/2/4
f 313/2/5 312/2/5 311/2/5
f 314/2/5 312/2/5 313/2/5
f 317/2/5 316/2/5 315/2/5
f 318/2/5 316/2/5 317/2/5
f 321/2/5 320/2/5 319/2/5
f 322/2/5 320/2/5 321/2/5
f 325/1/5 324/1/5 323/1/5
f 326/1/5 324/1/5 325/1/5
f 327/2/5 326/2/5 325/2/5
f 328/2/5 326/2/5 327/2/5
f 331/2/5 330/2/5 329/2/5
f 332/2/5 330/2/5 331/2/5
f 335/2/5 334/2/5 333/2/5
f 336/2/5 334/2/5 335/2/5
f 337/2/5 335/2/5 333/2/5
f 338/2/5 334/2/5 336/2/5
f 339/2/5 337/2/5 333/2/5
f 339/2/5 338/2/5 337/2/5
f 340/2/5 334/2/5 338/2/5
f 340/2/5 338/2/5 339/2/5
f 343/2/5 342/2/5 341/2/5
f 344/2/5 342/2/5 343/2/5
f 347/2/5 346/2/5 345/2/5
f 348/2/5 346/2/5 347/2/5
f 351/2/5 350/2/5 349/2/5
f 352/2/5 350/2/5 351/2/5
f 355/2/5 354/2/5 353/2/5
f 356/2/5 354/2/5 355/2/5
f 359/2/5 358/2/5 357/2/5
f 360/2/5 358/2/5 359/2/5
f 361/2/6 362/2/6 363/2/6
f 363/2/6 362/2/6 364/2/6
f 365/2/6 366/2/6 367/2/6
f 367/2/6 366/2/6 368/2/6
f 369/2/6 370/2/6 373/2/6
f 373/2/6 370/2/6 374/2/6
f 371/2/6 372/2/6 375/2/6
f 375/2/6 372/2/6 376/2/6
f 377/2/6 378/2/6 379/2/6
f 379/2/6 378/2/6 380/2/6
f 381/2/6 382/2/6 383/2/6
f 383/2/6 382/2/6 384/2/6
f 385/2/6 386/2/6 387/2/6
f 387/2/6 386/2/6 388/2/6
f 385/2/6 387/2/6 389/2/6
f 388/2/6 386/2/6 390/2/6
f 385/2/6 389/2/6 391/2/6
f 389/2/6 390/2/6 391/2/6
f 390/2/6 386/2/6 392/2/6
f 391/2/6 390/2/6 392/2/6
f 393/2/6 394/2/6 395/2/6
f 395/2/6 394/2/6 396/2/6
f 397/2/6 398/2/6 399/2/6
f 399/2/6 398/2/6 400/2/6
f 401/2/6 402/2/6 403/2/6
f 403/2/6 402/2/6 404/2/6
f 405/2/6 406/2/6 407/2/6
f 407/2/6 406/2/6 408/2/6
f 409/2/6 410/2/6 411/2/6
f 411/2/6 410/2/6 412/2/6
f 413/2/6 414/2/6 415/2/6
f 415/2/6 414/2/6 416/2/6
f 417/2/6 418/2/6 419/2/6
f 419/2/6 418/2/6 420/2/6
